# xmcd
#
# Track frame offsets:
#	150
#	16409
#	31796
#	49608
#	63165
#	80081
#	96283
#	109685
#	126663
#	141990
#	157101
#	171304
#	187215
#	201202
#	218271
#	239307
#	257900
#	269234
#	289297
#	306826
#	321679
#
# Disc length: 4497 seconds
#
# Revision: 3
# Processed by: cddbd v1.5.2PL0 Copyright (c) Steve Scherf et al.
# Submitted via: EasyCDDAExtractor 11.5.0.1
#
DISCID=4d118f15
DTITLE=Various Artist - NCT 058
DYEAR=2004
DGENRE=Country
TTITLE0=Kenny Chesney ft. Uncle Kracker - When The Sun Goes Down
TTITLE1=SheDaisy - Passenger Seat
TTITLE2=The Mavericks - Air That I Breathe
TTITLE3=Montgomery Gentry - If You Ever Stop Lovin' Me
TTITLE4=Colt Prather - I Won't Go (On And On)
TTITLE5=Rhonda Vincent - If Heartaches Had Wings
TTITLE6=Brooks and Dunn - That's What She Gets For Lovin' Me
TTITLE7=Trini Triggs - Heaven On Earth
TTITLE8=Jack Ingram - I Won't Go With Her
TTITLE9=Shania Twain - It Only Hurts When I'm Breathing
TTITLE10=Joe Diffie - Tougher Than Nails
TTITLE11=Emerson Drive - Last One Standing
TTITLE12=Rodney Hayden - Living The Good Life
TTITLE13=Billy Ray Cyrus - Face Of God
TTITLE14=Scott Miller - Amtrak Crescent
TTITLE15=Sherrie Austin - Drivin' Into The Sun
TTITLE16=Chris Knight - Banging Away
TTITLE17=John Michael Montgomery - Letters From Home
TTITLE18=Anthony Michael James - Old Friends
TTITLE19=Jill King - 98.6 And Fallin'
TTITLE20=Merle Haggard ft. Willie Nelson - Reno Blues
EXTD=
EXTT0=
EXTT1=
EXTT2=
EXTT3=
EXTT4=
EXTT5=
EXTT6=
EXTT7=
EXTT8=
EXTT9=
EXTT10=
EXTT11=
EXTT12=
EXTT13=
EXTT14=
EXTT15=
EXTT16=
EXTT17=
EXTT18=
EXTT19=
EXTT20=
PLAYORDER=
